<svg width="128" height="32" viewBox="0 0 128 32" fill="none" xmlns="http://www.w3.org/2000/svg">
<g opacity="0.9">
<path d="M19 27.3L18.4 26.8C16.4 24.9 15 23.7 15 22.2C15 21 16 20 17.2 20C17.9 20 18.6 20.3 19 20.8C19.4 20.3 20.1 20 20.8 20C22 20 23 20.9 23 22.2C23 23.7 21.6 24.9 19.6 26.8L19 27.3Z" fill="#50B2C0"/>
<path d="M18 6C19.1 6 20 6.9 20 8V17.08L19 17L18 17.08V8H13V16L10.5 13.75L8 16V8H6V24H13.08C13.2 24.72 13.45 25.39 13.8 26H6C4.9 26 4 25.1 4 24V8C4 6.9 4.9 6 6 6H18Z" fill="#8381D9"/>
<path d="M33.7861 23V8.9H39.9461C41.4261 8.9 42.5728 9.22667 43.3861 9.88C44.1994 10.52 44.6061 11.4133 44.6061 12.56C44.6061 13.32 44.4128 13.9733 44.0261 14.52C43.6394 15.0667 43.1061 15.4667 42.4261 15.72C43.2261 15.9467 43.8461 16.3467 44.2861 16.92C44.7394 17.48 44.9661 18.1933 44.9661 19.06C44.9661 20.3133 44.5394 21.2867 43.6861 21.98C42.8461 22.66 41.6728 23 40.1661 23H33.7861ZM36.2461 14.88H39.5061C41.2528 14.88 42.1261 14.2067 42.1261 12.86C42.1261 11.5133 41.2528 10.84 39.5061 10.84H36.2461V14.88ZM36.2461 21.06H39.8461C41.6061 21.06 42.4861 20.3533 42.4861 18.94C42.4861 17.5267 41.6061 16.82 39.8461 16.82H36.2461V21.06ZM51.7756 23.2C50.7623 23.2 49.8823 22.9933 49.1356 22.58C48.389 22.1667 47.809 21.58 47.3956 20.82C46.9823 20.0467 46.7756 19.14 46.7756 18.1C46.7756 17.06 46.9823 16.16 47.3956 15.4C47.809 14.64 48.389 14.0533 49.1356 13.64C49.8823 13.2267 50.7623 13.02 51.7756 13.02C52.789 13.02 53.669 13.2267 54.4156 13.64C55.1623 14.0533 55.7423 14.64 56.1556 15.4C56.569 16.16 56.7756 17.06 56.7756 18.1C56.7756 19.14 56.569 20.0467 56.1556 20.82C55.7423 21.58 55.1623 22.1667 54.4156 22.58C53.669 22.9933 52.789 23.2 51.7756 23.2ZM51.7756 21.3C52.5223 21.3 53.1223 21.0333 53.5756 20.5C54.029 19.9533 54.2556 19.1533 54.2556 18.1C54.2556 17.0333 54.029 16.24 53.5756 15.72C53.1223 15.1867 52.5223 14.92 51.7756 14.92C51.029 14.92 50.429 15.1867 49.9756 15.72C49.5223 16.24 49.2956 17.0333 49.2956 18.1C49.2956 19.1533 49.5223 19.9533 49.9756 20.5C50.429 21.0333 51.029 21.3 51.7756 21.3ZM63.2991 23.2C62.2857 23.2 61.4057 22.9933 60.6591 22.58C59.9124 22.1667 59.3324 21.58 58.9191 20.82C58.5057 20.0467 58.2991 19.14 58.2991 18.1C58.2991 17.06 58.5057 16.16 58.9191 15.4C59.3324 14.64 59.9124 14.0533 60.6591 13.64C61.4057 13.2267 62.2857 13.02 63.2991 13.02C64.3124 13.02 65.1924 13.2267 65.9391 13.64C66.6857 14.0533 67.2657 14.64 67.6791 15.4C68.0924 16.16 68.2991 17.06 68.2991 18.1C68.2991 19.14 68.0924 20.0467 67.6791 20.82C67.2657 21.58 66.6857 22.1667 65.9391 22.58C65.1924 22.9933 64.3124 23.2 63.2991 23.2ZM63.2991 21.3C64.0457 21.3 64.6457 21.0333 65.0991 20.5C65.5524 19.9533 65.7791 19.1533 65.7791 18.1C65.7791 17.0333 65.5524 16.24 65.0991 15.72C64.6457 15.1867 64.0457 14.92 63.2991 14.92C62.5524 14.92 61.9524 15.1867 61.4991 15.72C61.0457 16.24 60.8191 17.0333 60.8191 18.1C60.8191 19.1533 61.0457 19.9533 61.4991 20.5C61.9524 21.0333 62.5524 21.3 63.2991 21.3ZM70.3625 23V8.9H72.8625V17.38H72.9025L76.8425 13.22H79.8625L75.4225 17.9L80.1425 23H77.0825L72.9025 18.64H72.8625V23H70.3625ZM85.2052 23L80.2252 8.9H82.8652L86.3652 19.3L90.0452 8.9H91.9452L95.5452 19.44L99.1452 8.9H101.645L96.6252 23H94.5052L90.9252 12.82L87.3252 23H85.2052ZM103.191 11.12V8.68H105.991V11.12H103.191ZM103.351 23V13.22H105.851V23H103.351ZM112.028 23.2C111.202 23.2 110.428 23.1 109.708 22.9C108.988 22.7 108.388 22.4133 107.908 22.04L108.548 20.4C109.042 20.7333 109.595 20.9933 110.208 21.18C110.822 21.3533 111.435 21.44 112.048 21.44C112.688 21.44 113.162 21.3333 113.468 21.12C113.788 20.8933 113.948 20.6 113.948 20.24C113.948 19.68 113.535 19.32 112.708 19.16L110.708 18.78C109.015 18.46 108.168 17.58 108.168 16.14C108.168 15.5 108.342 14.9467 108.688 14.48C109.048 14.0133 109.542 13.6533 110.168 13.4C110.795 13.1467 111.515 13.02 112.328 13.02C113.022 13.02 113.688 13.12 114.328 13.32C114.968 13.5067 115.515 13.7933 115.968 14.18L115.288 15.82C114.902 15.5 114.435 15.2467 113.888 15.06C113.355 14.8733 112.842 14.78 112.348 14.78C111.695 14.78 111.208 14.8933 110.888 15.12C110.582 15.3467 110.428 15.6467 110.428 16.02C110.428 16.6067 110.808 16.9667 111.568 17.1L113.568 17.48C114.435 17.64 115.088 17.9333 115.528 18.36C115.982 18.7867 116.208 19.36 116.208 20.08C116.208 21.0533 115.828 21.82 115.068 22.38C114.308 22.9267 113.295 23.2 112.028 23.2ZM123.034 23.2C121.927 23.2 120.974 22.9933 120.174 22.58C119.374 22.1667 118.754 21.58 118.314 20.82C117.887 20.06 117.674 19.16 117.674 18.12C117.674 17.1067 117.881 16.22 118.294 15.46C118.721 14.7 119.301 14.1067 120.034 13.68C120.781 13.24 121.627 13.02 122.574 13.02C123.961 13.02 125.054 13.46 125.854 14.34C126.667 15.22 127.074 16.42 127.074 17.94V18.68H120.074C120.261 20.4267 121.261 21.3 123.074 21.3C123.621 21.3 124.167 21.22 124.714 21.06C125.261 20.8867 125.761 20.62 126.214 20.26L126.914 21.94C126.447 22.3267 125.861 22.6333 125.154 22.86C124.447 23.0867 123.741 23.2 123.034 23.2ZM122.674 14.72C121.941 14.72 121.347 14.9467 120.894 15.4C120.441 15.8533 120.167 16.4667 120.074 17.24H124.994C124.941 16.4267 124.714 15.8067 124.314 15.38C123.927 14.94 123.381 14.72 122.674 14.72Z" fill="url(#paint0_linear_726_2403)"/>
</g>
<defs>
<linearGradient id="paint0_linear_726_2403" x1="32" y1="16.3137" x2="128" y2="16.3137" gradientUnits="userSpaceOnUse">
<stop stop-color="#7FD1CC"/>
<stop offset="1" stop-color="#9694F5"/>
</linearGradient>
</defs>
</svg>
